<svg xmlns="http://www.w3.org/2000/svg" viewBox="0 0 32 32" shape-rendering="crispEdges">
  <title>QuickWorlds pixel globe and maze</title>
  <circle cx="16" cy="16" r="15" fill="#111"/>
  <circle cx="16" cy="16" r="13" fill="#0000aa"/>
  <path fill="#35a33b" d="M7 7h7v3h3v4h-5v3H7v-3H4v-4h3zm13 1h5v3h3v5h-4v-2h-5v-3h1zm-2 11h8v4h-3v4h-6v-3h-3v-3h4zM6 20h5v3H8v3H6z"/>
  <path fill="none" stroke="#fff" stroke-width="2" stroke-linecap="square" stroke-linejoin="miter" d="M10 9h9v4h-5v7h7v-4h-3m3 4 3 3"/>
  <rect x="22" y="22" width="3" height="3" fill="#fff"/>
</svg>
